<svg xmlns="http://www.w3.org/2000/svg" viewBox="0 0 100 100"><circle cx="50" cy="50" r="45" fill="#fff" stroke="#3c790a" stroke-width="10"/><rect width="40" height="3" x="8" y="29" fill="#3c790a"/><rect width="40" height="2" x="8" y="35" fill="#3c790a"/><path stroke="#3c790a" d="m8,48.5 h40"/><rect width="40" height="12" x="8" y="51" fill="#3c790a"/><path stroke="#3c790a" stroke-dasharray="1 1" d="m8,63.5 h40"/><path stroke="#3c790a" stroke-dasharray="1 1" d="m9,64.5 h40"/><path stroke="#3c790a" stroke-dasharray="1 1" d="m8,65.5 h40"/><path stroke="#3c790a" stroke-dasharray="1 1" d="m9,66.5 h40"/><path stroke="#3c790a" stroke-dasharray="1 1" d="m8,67.5 h40"/><rect width="40" height="3" x="8" y="68" fill="#3c790a"/><path fill="none" stroke="#3c790a" stroke-width="3" d="m49.5,26.5 h13 v47 h-13 z"/><rect width="9" height="2" x="51" y="33" fill="#3c790a"/><path stroke="#3c790a" d="m59.5,33 v-5"/><path stroke="#3c790a" d="m51,47.5 h9"/><path stroke="#3c790a" d="m59.5,48 v24"/><rect width="9" height="14" x="51" y="50" fill="#3c790a"/><path stroke="#3c790a" stroke-dasharray="1 1" d="m52,64.5 h7"/><path stroke="#3c790a" stroke-dasharray="1 1" d="m51,65.5 h7"/><path stroke="#3c790a" stroke-dasharray="1 1" d="m52,66.5 h7"/><path stroke="#3c790a" stroke-dasharray="1 1" d="m51,67.5 h7"/><path stroke="#3c790a" stroke-dasharray="1 1" d="m52,68.5 h7"/><path stroke="#3c790a" stroke-dasharray="1 1" d="m51,69.5 h7"/></svg>